<svg viewBox="0 0 160 160" version="1.1" id="svg_null"><g id="root" stroke="none" stroke-width="1" fill="none" fill-rule="evenodd"><rect id="background.accent" fill="#fff" x="0" y="0" width="160" height="160"></rect><rect id="icon.primary" x="70" y="54" width="20" height="20" display="none" fill="#555273"></rect><svg xmlns="http://www.w3.org/2000/svg" xmlns:xlink="http://www.w3.org/1999/xlink" viewBox="0 0 64 64" version="1.1" fill="#555273" id="svg_icon.primary" x="70" y="54" width="20" height="20"><g id="surface1"><path style=" " d="M 59.292969 1.039063 C 58.253906 1.039063 57.21875 1.414063 56.464844 2.171875 L 55.652344 2.984375 C 54.765625 2.898438 53.859375 3.167969 53.160156 3.820313 L 46.46875 10 L 4.992188 10 C 2.230469 10 -0.0117188 12.238281 0 15 L 0 53 C -0.0117188 55.761719 2.230469 58 4.992188 58 L 58.988281 58 C 61.738281 58 63.988281 55.761719 63.988281 53 L 63.988281 15 C 63.988281 13.148438 62.980469 11.539063 61.488281 10.671875 C 61.71875 10.160156 61.800781 9.609375 61.75 9.070313 L 62.550781 8.261719 C 63.308594 7.503906 63.722656 6.5 63.722656 5.433594 C 63.722656 4.363281 63.308594 3.359375 62.554688 2.605469 L 62.121094 2.171875 C 61.363281 1.414063 60.328125 1.039063 59.292969 1.039063 Z M 59.292969 3.019531 C 59.808594 3.019531 60.328125 3.207031 60.703125 3.585938 L 61.140625 4.023438 C 61.515625 4.398438 61.722656 4.902344 61.722656 5.4375 C 61.722656 5.96875 61.515625 6.472656 61.140625 6.851563 L 60.855469 7.136719 C 60.84375 7.128906 60.839844 7.117188 60.828125 7.109375 L 58.164063 4.453125 L 57.589844 3.875 L 57.875 3.585938 C 58.253906 3.207031 58.773438 3.019531 59.292969 3.019531 Z M 55.351563 4.960938 C 55.648438 4.960938 55.945313 5.074219 56.179688 5.296875 L 58.453125 7.570313 L 59.410156 8.53125 C 59.820313 8.9375 59.878906 9.558594 59.570313 10.039063 C 59.53125 10.097656 59.480469 10.160156 59.429688 10.210938 L 57.769531 12 L 57.09375 12.734375 L 51.984375 7.632813 L 54.519531 5.289063 C 54.757813 5.066406 55.054688 4.960938 55.351563 4.960938 Z M 50.515625 8.984375 L 55.734375 14.203125 L 54.070313 16 L 52.210938 18 L 44.839844 25.960938 C 42.519531 28.472656 40.351563 31.148438 38.378906 33.929688 L 37.621094 34.980469 L 28.109375 37.6875 C 27.808594 37.78125 27.480469 37.691406 27.261719 37.460938 C 27.03125 37.242188 26.949219 36.917969 27.039063 36.609375 L 29.386719 28.390625 L 34.421875 33.421875 C 34.613281 33.617188 34.871094 33.71875 35.125 33.71875 C 35.382813 33.71875 35.636719 33.617188 35.832031 33.421875 C 36.222656 33.03125 36.222656 32.402344 35.832031 32.011719 L 30.425781 26.601563 L 31.039063 26.15625 C 33.640625 24.289063 36.160156 22.238281 38.519531 20.058594 L 40.75 18 L 42.921875 16 L 47.25 12 L 49.421875 10 Z M 4.992188 12 L 44.300781 12 L 39.96875 16 L 15.988281 16 C 14.878906 16 13.988281 16.898438 13.988281 18 L 13.988281 50 C 13.988281 51.101563 14.878906 52 15.988281 52 L 55.988281 52 C 57.089844 52 57.988281 51.101563 57.988281 50 L 57.988281 18 C 57.988281 17.140625 57.441406 16.410156 56.679688 16.128906 L 60.238281 12.28125 C 61.269531 12.75 61.988281 13.789063 61.988281 15 L 61.988281 53 C 61.988281 54.648438 60.640625 56 58.988281 56 L 4.992188 56 C 3.332031 56 1.992188 54.648438 1.992188 53 L 1.992188 15 C 1.992188 13.351563 3.332031 12 4.992188 12 Z M 6.984375 17 C 6.433594 17 5.984375 17.445313 5.984375 18 C 5.984375 18.554688 6.433594 19 6.984375 19 L 8.984375 19 C 9.539063 19 9.984375 18.554688 9.984375 18 C 9.984375 17.445313 9.539063 17 8.984375 17 Z M 15.988281 18 L 37.8125 18 L 37.160156 18.597656 C 34.859375 20.71875 32.410156 22.71875 29.871094 24.539063 L 28.578125 25.460938 C 28.527344 25.5 28.492188 25.554688 28.445313 25.597656 C 28.351563 25.648438 28.261719 25.699219 28.183594 25.777344 C 28.019531 25.9375 27.941406 26.144531 27.914063 26.359375 C 27.886719 26.425781 27.84375 26.480469 27.820313 26.550781 L 25.109375 36.0625 C 24.925781 36.722656 25.007813 37.410156 25.28125 38.019531 L 24.296875 38.984375 C 23.90625 39.371094 23.898438 40.003906 24.285156 40.394531 C 24.480469 40.597656 24.742188 40.699219 25 40.699219 C 25.253906 40.699219 25.507813 40.601563 25.703125 40.410156 L 26.679688 39.449219 C 27.058594 39.621094 27.464844 39.71875 27.878906 39.71875 C 28.140625 39.71875 28.398438 39.6875 28.660156 39.609375 L 38.183594 36.902344 C 38.613281 36.769531 38.992188 36.5 39.28125 36.121094 L 40.011719 35.078125 C 41.933594 32.371094 44.050781 29.761719 46.3125 27.320313 L 54.9375 18 L 55.988281 18 L 55.988281 50 L 15.988281 50 Z M 44.464844 19.230469 C 44.210938 19.230469 43.953125 19.328125 43.757813 19.523438 L 37.519531 25.761719 C 37.132813 26.148438 37.132813 26.78125 37.519531 27.171875 C 37.714844 27.367188 37.972656 27.46875 38.230469 27.46875 C 38.484375 27.46875 38.742188 27.367188 38.9375 27.171875 L 45.171875 20.9375 C 45.5625 20.546875 45.5625 19.914063 45.171875 19.523438 C 44.976563 19.328125 44.71875 19.230469 44.464844 19.230469 Z M 6.984375 22 C 6.433594 22 5.984375 22.445313 5.984375 23 C 5.984375 23.554688 6.433594 24 6.984375 24 L 8.984375 24 C 9.539063 24 9.984375 23.554688 9.984375 23 C 9.984375 22.445313 9.539063 22 8.984375 22 Z M 6.984375 27 C 6.433594 27 5.984375 27.445313 5.984375 28 C 5.984375 28.554688 6.433594 29 6.984375 29 L 8.984375 29 C 9.539063 29 9.984375 28.554688 9.984375 28 C 9.984375 27.445313 9.539063 27 8.984375 27 Z M 7.984375 31 C 6.332031 31 4.984375 32.347656 4.984375 34 C 4.984375 35.652344 6.332031 37 7.984375 37 C 9.640625 37 10.984375 35.652344 10.984375 34 C 10.984375 32.347656 9.640625 31 7.984375 31 Z M 7.984375 33 C 8.539063 33 8.984375 33.449219 8.984375 34 C 8.984375 34.550781 8.539063 35 7.984375 35 C 7.433594 35 6.984375 34.550781 6.984375 34 C 6.984375 33.449219 7.433594 33 7.984375 33 Z M 6.984375 39 C 6.433594 39 5.984375 39.445313 5.984375 40 C 5.984375 40.554688 6.433594 41 6.984375 41 L 8.984375 41 C 9.539063 41 9.984375 40.554688 9.984375 40 C 9.984375 39.445313 9.539063 39 8.984375 39 Z M 6.984375 44 C 6.433594 44 5.984375 44.445313 5.984375 45 C 5.984375 45.554688 6.433594 46 6.984375 46 L 8.984375 46 C 9.539063 46 9.984375 45.554688 9.984375 45 C 9.984375 44.445313 9.539063 44 8.984375 44 Z M 6.984375 49 C 6.433594 49 5.984375 49.445313 5.984375 50 C 5.984375 50.554688 6.433594 51 6.984375 51 L 8.984375 51 C 9.539063 51 9.984375 50.554688 9.984375 50 C 9.984375 49.445313 9.539063 49 8.984375 49 Z "></path></g></svg><g id="group" transform="translate(32.000000, 78.000000)"><rect id="Rectangle" x="0" y="2" width="96" height="18"></rect><text id="headerText.primary" font-family="Share Tech Mono" font-size="18" font-weight="400" letter-spacing=".81" fill="#555273" data-text-alignment="C" font-style="normal"><tspan x="11.145973205566406" y="15.5">huangfh</tspan></text></g><path d="M92 70l36 0l0 2l-36 0l0 -2zm-60 0l36 0l0 2l-36 0l0 -2zm0 35l96 0l0 2l-96 0l0 -2z" id="shape.primary" fill="#555273"></path></g></svg>